<?xml version="1.0" standalone="no"?>
<!DOCTYPE svg PUBLIC "-//W3C//DTD SVG 20010904//EN"
 "http://www.w3.org/TR/2001/REC-SVG-20010904/DTD/svg10.dtd">
<svg version="1.0" xmlns="http://www.w3.org/2000/svg"
 width="1080.000000pt" height="1080.000000pt" viewBox="0 0 1080.000000 1080.000000"
 preserveAspectRatio="xMidYMid meet">

<g transform="translate(0.000000,1080.000000) scale(0.100000,-0.100000)"
fill="#000000" stroke="none">
<path d="M0 5400 l0 -5400 5400 0 5400 0 0 5400 0 5400 -5400 0 -5400 0 0
-5400z m1606 2158 c258 -189 334 -223 509 -222 130 0 198 14 481 94 388 112
646 153 954 153 296 0 570 -44 934 -150 324 -93 458 -115 580 -94 134 23 212
65 444 237 61 46 116 84 120 84 12 0 2 -139 -14 -197 -25 -92 -168 -224 -326
-304 -114 -57 -187 -83 -417 -145 -371 -100 -612 -202 -837 -352 -195 -131
-379 -321 -462 -479 -15 -29 -30 -53 -33 -53 -4 0 -27 36 -52 79 -97 167 -261
334 -455 464 -104 70 -348 191 -486 242 -55 20 -203 65 -330 100 -253 70 -320
94 -433 155 -150 81 -280 202 -306 287 -19 59 -32 203 -19 203 6 0 72 -46 148
-102z m-75 -482 c133 -101 300 -177 534 -241 374 -104 468 -137 648 -227 465
-232 717 -573 717 -969 0 -426 -307 -813 -740 -931 -74 -20 -107 -23 -250 -22
-137 0 -179 4 -245 22 -101 28 -262 106 -341 165 -142 107 -262 265 -329 429
-70 173 -68 146 -72 1031 -2 438 -2 797 2 797 3 0 37 -24 76 -54z m4106 -743
c-4 -874 -2 -835 -67 -1014 -60 -166 -190 -337 -339 -448 -85 -64 -234 -135
-337 -162 -103 -27 -297 -36 -401 -19 -399 64 -722 345 -825 720 -29 107 -35
283 -14 391 82 408 450 743 1021 932 61 20 184 56 275 81 91 24 194 54 230 66
106 35 300 135 375 194 39 30 74 55 78 55 5 1 6 -358 4 -796z m1035 -342 c196
-76 278 -274 265 -639 -11 -337 -106 -489 -336 -538 -132 -28 -317 -12 -410
36 -56 28 -117 84 -146 134 -62 107 -91 284 -82 490 12 264 85 424 225 496 80
42 128 49 282 46 121 -2 154 -6 202 -25z m543 10 l90 -1 72 -481 c39 -265 74
-484 77 -487 4 -3 10 -1 15 4 5 5 55 223 111 484 57 261 104 477 106 479 4 5
275 3 279 -1 2 -2 22 -91 45 -198 24 -107 70 -323 104 -479 34 -157 67 -286
74 -289 15 -5 13 -19 87 488 36 245 69 453 73 464 7 16 20 18 125 18 65 1 120
-2 123 -5 3 -2 -4 -54 -16 -113 -56 -289 -200 -1048 -200 -1056 0 -4 -83 -8
-185 -8 -183 0 -185 0 -190 23 -2 12 -43 209 -90 437 -47 228 -87 416 -89 417
-2 3 -55 -245 -133 -627 -19 -96 -39 -192 -44 -212 l-10 -38 -180 0 c-135 0
-181 3 -184 13 -2 6 -25 120 -50 252 -26 132 -75 390 -110 574 -35 184 -62
337 -60 341 2 4 19 5 37 4 18 -1 74 -3 123 -3z m1785 -482 l5 -484 215 -1 215
-1 3 -107 3 -106 -341 0 -340 0 0 588 c0 324 2 591 4 593 2 2 55 3 118 3 l113
-1 5 -484z m-5430 -334 c52 -187 134 -358 227 -471 24 -31 43 -57 41 -58 -2
-2 -34 -23 -73 -48 -79 -51 -125 -96 -183 -181 l-40 -57 -26 44 c-41 70 -121
151 -194 197 -37 23 -69 43 -71 45 -2 1 18 28 43 60 90 110 160 256 222 461
16 51 29 91 30 90 1 -1 12 -38 24 -82z m5710 -989 c47 -9 86 -16 88 -16 2 0 2
-37 0 -82 -3 -82 -3 -83 -28 -81 -14 1 -98 5 -187 9 -190 8 -237 0 -283 -52
-42 -48 -51 -91 -57 -258 -12 -330 39 -400 280 -388 l67 4 0 98 0 99 -47 3
-48 3 2 85 c1 47 2 88 2 93 1 4 69 7 151 7 l150 0 0 -275 c0 -151 -3 -275 -7
-275 -5 0 -62 -7 -128 -15 -142 -18 -284 -19 -357 -4 -204 44 -288 197 -288
528 0 326 74 471 270 526 68 19 292 14 420 -9z m-7536 -28 c3 -18 43 -185 88
-371 55 -226 85 -333 90 -320 4 10 41 158 82 329 41 171 80 330 86 353 l11 41
179 0 180 0 0 -520 0 -520 -105 0 -105 0 0 401 c0 316 -3 400 -12 397 -8 -3
-57 -167 -113 -379 l-100 -374 -107 -3 -107 -3 -10 38 c-6 21 -52 192 -103
381 -62 232 -96 342 -105 342 -11 0 -13 -72 -10 -400 l2 -400 -107 0 -108 0 0
520 0 520 184 0 184 0 6 -32z m1501 10 c28 -121 225 -1003 225 -1010 0 -4 -47
-8 -105 -8 l-104 0 -9 38 c-5 20 -16 62 -23 92 l-14 55 -160 3 c-88 1 -170 0
-181 -3 -18 -4 -24 -19 -39 -95 l-17 -90 -109 0 c-108 0 -109 0 -104 23 24
100 225 1002 225 1009 0 4 92 8 205 8 204 0 205 0 210 -22z m910 8 c136 -36
203 -112 226 -255 21 -135 -13 -251 -98 -334 l-46 -46 66 -178 c36 -98 69
-186 72 -195 7 -17 -3 -18 -111 -18 l-119 0 -60 175 -59 176 -101 -3 -100 -3
0 -173 0 -172 -107 0 -108 0 0 520 0 520 248 0 c174 0 262 -4 297 -14z m625
-211 l0 -225 39 0 c98 0 88 -12 182 231 l84 219 123 0 122 0 -14 -32 c-7 -18
-57 -133 -110 -254 -53 -122 -96 -228 -96 -236 0 -8 47 -119 104 -247 58 -127
108 -241 111 -252 6 -19 3 -20 -116 -17 l-122 3 -83 195 c-46 107 -85 199 -86
204 -2 4 -34 5 -71 1 l-67 -7 0 -199 0 -199 -110 0 -110 0 0 520 0 520 110 0
110 0 0 -225z m1368 134 l-3 -91 -228 0 -228 0 3 -121 3 -122 160 -2 c88 -2
170 -3 183 -3 21 0 22 -3 22 -90 l0 -90 -185 0 -185 0 0 -125 0 -125 230 0
230 0 0 -90 0 -90 -340 0 -340 0 0 520 0 520 340 0 341 0 -3 -91z m852 -4 l0
-95 -140 0 -140 0 0 -425 0 -425 -105 0 -105 0 0 425 0 425 -140 0 -140 0 0
95 0 95 385 0 385 0 0 -95z m340 -425 l0 -520 -105 0 -105 0 0 520 0 520 105
0 105 0 0 -520z m594 503 c3 -10 57 -196 121 -413 63 -217 119 -404 124 -415
6 -13 10 136 10 413 l1 432 110 0 110 0 0 -520 0 -520 -178 0 -179 0 -12 43
c-76 264 -246 807 -253 807 -4 0 -8 -191 -8 -425 l0 -425 -105 0 -105 0 0 520
0 520 179 0 c162 0 180 -2 185 -17z"/>
<path d="M2350 6260 c-288 -46 -500 -295 -500 -587 0 -174 54 -307 175 -429
200 -200 513 -231 749 -73 96 64 157 134 206 234 49 102 64 179 58 303 -11
198 -114 368 -290 475 -113 68 -267 98 -398 77z m131 -266 c-90 -114 -2 -284
147 -284 34 0 88 25 118 55 32 32 40 24 50 -51 28 -231 -179 -433 -403 -394
-125 21 -218 92 -269 204 -105 230 63 495 314 496 l63 0 -20 -26z"/>
<path d="M4565 6264 c-241 -37 -440 -216 -500 -449 -20 -77 -19 -221 1 -299
38 -147 153 -296 285 -369 177 -98 402 -100 582 -5 96 51 196 157 245 259 22
46 46 109 53 140 17 82 7 248 -21 326 -59 169 -216 320 -388 373 -64 20 -200
32 -257 24z m237 -282 c77 -38 128 -91 167 -172 21 -46 26 -69 26 -140 0 -101
-27 -170 -94 -242 -169 -184 -472 -134 -577 95 -23 50 -29 76 -29 137 0 41 4
88 8 103 l8 28 34 -29 c65 -58 154 -66 222 -19 77 52 99 166 48 242 l-26 37
73 -3 c58 -3 88 -11 140 -37z"/>
<path d="M6345 5791 c-49 -22 -68 -43 -94 -101 -48 -111 -54 -412 -11 -537 34
-98 100 -143 210 -143 112 0 185 52 217 155 26 86 26 403 0 487 -20 66 -67
125 -114 144 -47 20 -160 17 -208 -5z"/>
<path d="M3000 4006 c-9 -22 -100 -445 -100 -465 0 -8 41 -11 135 -11 124 0
135 1 135 18 0 28 -89 445 -98 462 -14 23 -62 21 -72 -4z"/>
<path d="M3822 3855 l1 -165 116 0 c91 0 124 4 151 18 50 25 75 74 75 147 0
73 -25 122 -75 147 -27 14 -61 18 -152 18 l-118 0 2 -165z"/>
</g>
</svg>
